#!OML:ASF E:\VariousWalksJay\Project 1\Capture day 1\Session 1\Actor2.ASF
:FULLY-SPECIFIED
:DEGREES
846
root 2.73278 14.5943 19.4403 -20.8624 49.7327 -30.2689
lowerback 28.2857 -3.98802 11.4502
upperback 14.5827 -1.4095 1.92824
thorax 0.778899 0.194113 -3.97924
lowerneck -15.0129 -2.29599 -4.96779
upperneck -8.05417 -1.52103 19.7325
head 0.426076 -0.246797 6.86392
rclavicle -2.62396e-014 7.55382e-014
rhumerus -72.6277 20.5441 -126.536
rradius 66.7695
rwrist 5.16236
rhand -3.05231 10.5968
rfingers 7.12502
rthumb 22.6638 -18.0924
lclavicle -2.62396e-014 7.55382e-014
lhumerus -78.2158 -30.4206 140.508
lradius 60.4189
lwrist -1.38148
lhand -19.6283 -397.168
lfingers 7.12502
lthumb 6.69861 -367.294
rfemur -43.5165 -17.4237 57.767
rtibia 67.0151
rfoot -35.8205 -38.1705
rtoes 18.8992
lfemur -53.4078 5.1806 -15.2136
ltibia 5.84703
lfoot -17.1296 14.0939
ltoes -20.5108
847
root 2.72409 14.5011 19.4722 -20.8205 49.67 -30.4803
lowerback 29.0015 -4.01506 11.325
upperback 14.7712 -1.36199 1.86141
thorax 0.681974 0.2226 -3.98666
lowerneck -14.7066 -2.25206 -5.11521
upperneck -8.8367 -1.29287 19.9859
head 0.131255 -0.176048 6.98991
rclavicle -2.3059e-014 -6.12257e-014
rhumerus -72.6594 20.6578 -126.526
rradius 66.8758
rwrist 5.48196
rhand -3.2144 10.8529
rfingers 7.12502
rthumb 22.5082 -17.8553
lclavicle -2.3059e-014 -6.12257e-014
lhumerus -78.1568 -30.4567 140.429
lradius 60.5373
lwrist -1.39511
lhand -19.4917 -397.469
lfingers 7.12502
lthumb 6.83047 -367.6
rfemur -44.2613 -17.3433 58.2711
rtibia 68.0721
rfoot -36.4419 -38.3811
rtoes 18.5372
lfemur -51.7402 5.06162 -14.9211
ltibia 1.28233
lfoot -15.0536 15.1186
ltoes -20.1672
848
root 2.71646 14.4139 19.5072 -20.8433 49.6314 -30.7167
lowerback 29.7358 -4.04126 11.2149
upperback 14.9563 -1.30759 1.79005
thorax 0.578292 0.255619 -4.01036
lowerneck -14.3652 -2.23226 -5.28662
upperneck -9.59326 -1.0962 20.2729
head -0.156759 -0.12157 7.13022
rclavicle -3.33958e-014 -1.27222e-014
rhumerus -72.6387 20.7152 -126.514
rradius 66.9672
rwrist 5.79245
rhand -3.46652 11.0589
rfingers 7.12502
rthumb 22.2662 -17.6784
lclavicle -3.33958e-014 -1.27222e-014
lhumerus -78.1158 -30.5632 140.328
lradius 60.6843
lwrist -1.46681
lhand -19.3855 -397.72
lfingers 7.12502
lthumb 6.93307 -367.853
rfemur -44.9051 -17.2609 58.7569
rtibia 69.0302
rfoot -37.0501 -38.6045
rtoes 18.2155
lfemur -51.5331 4.93645 -14.597
ltibia -2.22639e-014
lfoot -14.4278 16.3781
ltoes -19.5192
849
root 2.71061 14.3333 19.5447 -20.9112 49.6191 -30.9736
lowerback 30.8593 -4.13797 11.2276
upperback 14.943 -1.21626 1.51619
thorax 0.264913 0.297637 -3.97063
lowerneck -14.0066 -2.23335 -5.46634
upperneck -10.3065 -0.933539 20.5603
head -0.431015 -0.0837711 7.27128
rclavicle 3.65764e-014 3.10104e-014
rhumerus -72.5535 20.7142 -126.496
rradius 67.0199
rwrist 6.11062
rhand -3.80258 11.2388
rfingers 7.12502
rthumb 21.9435 -17.5367
lclavicle 3.65764e-014 3.10104e-014
lhumerus -78.1008 -30.7482 140.214
lradius 60.8473
lwrist -1.60234
lhand -19.3255 -397.924
lfingers 7.12502
lthumb 6.99091 -368.059
rfemur -45.4749 -17.1884 59.2263
rtibia 69.8995
rfoot -37.6317 -38.8345
rtoes 17.9323
lfemur -51.8283 4.78353 -14.2636
ltibia 6.04305e-014
lfoot -14.3228 17.81
ltoes -18.731
850
root 2.70683 14.26 19.584 -20.9936 49.6305 -31.2387
lowerback 31.5906 -4.1711 11.1872
upperback 15.084 -1.1521 1.42284
thorax 0.149586 0.338597 -4.04493
lowerneck -13.6528 -2.24715 -5.64625
upperneck -10.9497 -0.800919 20.8281
head -0.681473 -0.0585081 7.40516
rclavicle 4.77083e-015 4.77083e-014
rhumerus -72.4081 20.668 -126.481
rradius 67.0195
rwrist 6.45434
rhand -4.18331 11.4088
rfingers 7.12502
rthumb 21.5779 -17.409
lclavicle 4.77083e-015 4.77083e-014
lhumerus -78.1006 -30.9967 140.092
lradius 61.0002
lwrist -1.80937
lhand -19.3234 -398.089
lfingers 7.12502
lthumb 6.99296 -368.225
rfemur -45.9925 -17.1236 59.6783
rtibia 70.6846
rfoot -38.1845 -39.0634
rtoes 17.6934
lfemur -52.0394 4.60669 -13.9331
ltibia -2.54444e-014
lfoot -14.1558 19.259
ltoes -17.9938
851
root 2.70502 14.1953 19.6243 -21.0357 49.6705 -31.4686
lowerback 32.2649 -4.20103 11.156
upperback 15.2057 -1.09148 1.31913
thorax 0.0388292 0.377871 -4.13628
lowerneck -13.3252 -2.26363 -5.81467
upperneck -11.4972 -0.692442 21.0549
head -0.898687 -0.0406569 7.52243
rclavicle -2.8625e-014 -2.8625e-014
rhumerus -72.2123 20.6004 -126.468
rradius 66.9648
rwrist 6.85377
rhand -4.57558 11.5785
rfingers 7.12502
rthumb 21.2012 -17.2821
lclavicle -2.8625e-014 -2.8625e-014
lhumerus -78.1103 -31.2808 139.973
lradius 61.1219
lwrist -2.032
lhand -19.3515 -398.238
lfingers 7.12502
lthumb 6.96582 -368.373
rfemur -46.4752 -17.0588 60.0868
rtibia 71.3884
rfoot -38.7095 -39.2811
rtoes 17.4824
lfemur -52.2244 4.41408 -13.6347
ltibia 3.18055e-014
lfoot -14.008 20.5417
ltoes -17.4181
